<?xml version="1.0" encoding="UTF-8"?>
<svg id="a" data-name="Layer 1" xmlns="http://www.w3.org/2000/svg" viewBox="0 0 250 250">
  <path d="M202.37,0H47.63C21.43,0,0,21.43,0,47.63V202.37C0,228.57,21.43,250,47.63,250H202.37c26.19,0,47.63-21.43,47.63-47.63V47.63c0-26.19-21.43-47.63-47.63-47.63ZM125,216.24c-33.79,0-61.28-27.49-61.28-61.28V33.76h12.86c16.58,0,30.01,13.44,30.01,30.01v91.18c0,10.15,8.26,18.41,18.41,18.41s18.41-8.26,18.41-18.41c0-6.71-3.6-12.59-8.98-15.8-5.84-3.5-9.43-9.78-9.43-16.58v-28.9c33.79,0,61.28,27.49,61.28,61.28s-27.49,61.28-61.28,61.28Zm79.69,0c-10.15,0-18.41-8.26-18.41-18.41s8.26-18.41,18.41-18.41,18.41,8.26,18.41,18.41-8.26,18.41-18.41,18.41Z"/>
</svg>