<?xml version="1.0" encoding="UTF-8"?>
<svg id="a" data-name="Layer 1" xmlns="http://www.w3.org/2000/svg" viewBox="0 0 100 100">
  <path d="M80.95,0H19.05C8.57,0,0,8.57,0,19.05v61.9c0,10.48,8.57,19.05,19.05,19.05h61.9c10.48,0,19.05-8.57,19.05-19.05V19.05c0-10.48-8.57-19.05-19.05-19.05Zm-30.95,86.5c-13.52,0-24.51-11-24.51-24.51V13.5h5.15c6.63,0,12.01,5.38,12.01,12.01V61.98c0,4.06,3.3,7.36,7.36,7.36s7.36-3.3,7.36-7.36c0-2.68-1.44-5.03-3.59-6.32-2.33-1.4-3.77-3.91-3.77-6.63v-11.56c13.52,0,24.51,11,24.51,24.51s-11,24.51-24.51,24.51Zm31.63,0c-4.06,0-7.36-3.3-7.36-7.36s3.3-7.36,7.36-7.36,7.36,3.3,7.36,7.36-3.3,7.36-7.36,7.36Z" style="fill: #fff;"/>
</svg>